<?xml version="1.0" encoding="UTF-8"?>
<svg width="360px" height="365px" viewBox="0 0 360 365" version="1.1" xmlns="http://www.w3.org/2000/svg" xmlns:xlink="http://www.w3.org/1999/xlink">
    <!-- Generator: sketchtool 52.5 (67469) - http://www.bohemiancoding.com/sketch -->
    <title>7CF4B968-20F6-473B-BC82-E58395C69974svg/</title>
    <desc>Created with sketchtool.</desc>
    <defs>
        <filter x="-71.3%" y="-71.2%" width="242.5%" height="242.4%" filterUnits="objectBoundingBox" id="filter-1">
            <feGaussianBlur stdDeviation="40.5642857" in="SourceGraphic"></feGaussianBlur>
        </filter>
        <linearGradient x1="27.7766421%" y1="37.1342535%" x2="87.6151823%" y2="102.791273%" id="linearGradient-2">
            <stop stop-color="#F5C08B" offset="0%"></stop>
            <stop stop-color="#DCA064" offset="100%"></stop>
        </linearGradient>
        <linearGradient x1="28.497744%" y1="25.4653968%" x2="111.256333%" y2="109.807899%" id="linearGradient-3">
            <stop stop-color="#FFD87C" offset="0%"></stop>
            <stop stop-color="#F4B82F" offset="100%"></stop>
        </linearGradient>
    </defs>
    <g id="UI" stroke="none" stroke-width="1" fill="none" fill-rule="evenodd">
        <g id="2.1--Onboarding-Page-2" transform="translate(0.000000, -23.000000)">
            <g id="Group-3" transform="translate(66.000000, 83.000000)">
                <ellipse id="Oval-3" fill="#B7C1CB" opacity="0.149999991" filter="url(#filter-1)" cx="113.540541" cy="122.579569" rx="85.3918919" ry="85.4556904"></ellipse>
                <path d="M14.1450557,66.8952596 C5.14248185,82.7074889 0,101.003199 0,120.5 C0,164.828403 33,208 72,222" id="Oval-2" stroke="#ABABAB" stroke-width="2" stroke-linecap="round"></path>
                <path d="M172,65 C160,81 155,102.503199 155,122 C155,166.328403 181.905424,206.161546 220,223" id="Oval-2" stroke="#ABABAB" stroke-width="2" stroke-linecap="round" transform="translate(187.500000, 144.000000) scale(-1, 1) translate(-187.500000, -144.000000) "></path>
                <path d="M167.165324,29.2120449 C150.250961,18.3196985 130.113503,12 108.5,12 C86.967727,12 60,20 42,32" id="Oval-2" stroke="#ABABAB" stroke-width="2" stroke-linecap="round"></path>
                <text id="Fixtures" font-family="Roboto-Medium, Roboto" font-size="14" font-weight="400" letter-spacing="0.5" fill="#FA7171" fill-opacity="0.897163723">
                    <tspan x="0.364257812" y="52">Fixtures</tspan>
                </text>
                <text id="Teams" font-family="Roboto-Medium, Roboto" font-size="14" font-weight="400" letter-spacing="0.5" fill="#FA7171" fill-opacity="0.897163723">
                    <tspan x="92.0585938" y="231">Teams</tspan>
                </text>
                <text id="Grounds" font-family="Roboto-Medium, Roboto" font-size="14" font-weight="400" letter-spacing="0.5" fill="#FA7171" fill-opacity="0.897163723">
                    <tspan x="159.31543" y="52">Grounds</tspan>
                </text>
                <g id="Group-25" transform="translate(62.000000, 52.000000)">
                    <g id="Group-24" transform="translate(0.000000, 80.093567)" fill-rule="nonzero">
                        <polygon id="Shape" stroke="#4C5045" stroke-width="2" fill="#EFEDEE" points="74.5239035 47.7496063 81.2458304 19.6410189 74.5239035 0 29.14546 0 23.2046784 20.6383702 29.14546 47.7496063"></polygon>
                        <path d="M103.059272,47.7496063 L74.1052632,47.7496063 L74.1052632,0 C74.1052632,0 103.059272,10.4056032 103.059272,47.7496063 Z" id="Shape" stroke="#4C5045" stroke-width="2" fill="#465059" stroke-linecap="round"></path>
                        <path d="M28.9540093,0 L28.9540093,47.7496063 L0,47.7496063 C0,10.4056032 28.9540093,0 28.9540093,0 Z" id="Shape" stroke="#4C5045" stroke-width="2" fill="#465059"></path>
                        <g id="Group-21" transform="translate(41.169591, 2.245614)" stroke="#4C5045" stroke-width="2">
                            <path d="M0.748538012,45.3289508 C0.748538012,29.7354211 5.27238948,13.0949561 5.27238948,13.0949561 L10.4238746,6.73684211 L15.5753597,13.0949561 C15.5753597,13.0949561 20.0992112,29.7354211 20.0992112,45.3289508 L0.748538012,45.3289508 Z" id="Shape" fill="#C0344A"></path>
                            <path d="M21.609882,0 C21.609882,0 21.3599155,5.11567481 15.9557469,12.7162281 L5.65277669,12.7162281 C0.249966577,5.11709178 0,0 0,0 L21.609882,0 Z" id="Shape" fill="#DA5B65"></path>
                        </g>
                        <path d="M85.3333333,47.4192505 L85.3333333,32.7437372 C85.3333333,31.1952929 86.5356185,29.9415205 88.0204742,29.9415205 C89.5039715,29.9415205 90.7076151,31.1952929 90.7076151,32.7437372 L90.7076151,47.4192505 L85.3333333,47.4192505 Z" id="Shape" fill="#3C474D"></path>
                        <path d="M11.9766082,47.4192505 L11.9766082,32.7437372 C11.9766082,31.1952929 13.1788933,29.9415205 14.6637491,29.9415205 C16.1472464,29.9415205 17.3508899,31.1952929 17.3508899,32.7437372 L17.3508899,47.4192505 L11.9766082,47.4192505 Z" id="Shape-Copy-2" fill="#3C474D"></path>
                    </g>
                    <g id="Group-23" transform="translate(8.233918, 0.000000)">
                        <path d="M71.9513774,3.56540993 C68.4718866,-0.828857709 63.5248139,0.336206147 60.665031,0.899531585 C56.7408721,1.67275171 53.7724911,2.57219718 43.7868948,2.57219718 C32.348538,2.57219718 21.5799704,6.51403295 13.4642025,13.6720894 C5.2631603,20.9051598 0.745959167,30.5451664 0.745959167,40.8148568 C8.2399136,40.8148568 13.8603794,40.8148568 17.6073566,40.8148568 C32.9896842,40.8148568 56.0631755,40.8148568 86.8278305,40.8148568 C86.8278305,24.5382847 77.148662,10.1290885 71.9513774,3.56540993 Z" id="Shape" stroke="#4C5045" stroke-width="2" fill="#C86D5C" fill-rule="nonzero"></path>
                        <path d="M26.49031,5.77395327 C21.6978951,7.64260579 17.2867896,10.3005915 13.4642025,13.6720894 C5.2631603,20.9051598 0.745959167,30.5451664 0.745959167,40.8148568 C5.23890647,46.0320276 7.48538012,46.0320276 7.48538012,40.8148568 C7.48538012,20.2105263 31.4385965,11.2280702 26.49031,5.77395327 Z" id="Shape" fill-opacity="0.05" fill="#000000" fill-rule="nonzero"></path>
                        <ellipse id="Oval-13" stroke="#4C5045" stroke-width="2" fill="#F5B97D" cx="80.2164616" cy="44.4566801" rx="7.37365803" ry="7.35153738"></ellipse>
                        <ellipse id="Oval-13-Copy" stroke="#4C5045" stroke-width="2" fill="#F5B97D" cx="7.37365803" cy="44.4566801" rx="7.37365803" ry="7.35153738"></ellipse>
                        <path d="M82.6193593,43.7888429 C82.6193593,67.5336669 65.2753774,86.7837135 43.8797241,86.7837135 C22.4840709,86.7837135 5.1392162,67.5336669 5.1392162,43.7888429 C4.806428,33.2174038 8.91160165,29.9415205 24.7017544,29.9415205 C34.2677464,29.9415205 53.7526204,24.5558267 67.3684211,26.1988304 C77.1921942,27.3842543 82.6193593,33.8367302 82.6193593,43.7888429 Z" id="Shape" stroke="#4C5045" stroke-width="2" fill="url(#linearGradient-2)" fill-rule="nonzero"></path>
                        <path d="M28.153967,55.5953731 C29.2711879,56.1911253 31.7290739,56.1911253 32.6228507,55.5953731" id="Line-9" stroke="#D65555" stroke-width="1.78500012" opacity="0.597209821" stroke-linecap="round"></path>
                        <path d="M55.4141573,55.5953731 C56.5313782,56.1911253 58.9892642,56.1911253 59.8830409,55.5953731" id="Line-9-Copy" stroke="#D65555" stroke-width="1.78500012" opacity="0.597209821" stroke-linecap="round"></path>
                        <path d="M14.3004277,40.2239768 C14.3004277,63.9688008 22.3444183,74.7539251 41.1137296,85.8926181 C19.7180763,85.8926181 4.69232783,61.1647196 5.1392162,43.7888429 C5.1392162,31.1779353 7.48538012,31.4385965 9.73099415,30.6900585 C11.9766082,29.9415205 14.3004277,29.0890917 14.3004277,40.2239768 Z" id="Shape" fill-opacity="0.0399999991" fill="#000000" fill-rule="nonzero"></path>
                        <path d="M43.7950598,72.6667895 C47.7440139,72.6667895 50.9452736,69.6347162 50.9452736,65.8944641 C50.9452736,63.3924582 47.7440139,68.6308276 43.7950598,68.6308276 C39.8461057,68.6308276 36.6448459,63.1696844 36.6448459,65.8944641 C36.6448459,69.6347162 39.8461057,72.6667895 43.7950598,72.6667895 Z" id="Oval" fill="#5E4328"></path>
                        <ellipse id="Oval-14-Copy" fill="#4C5045" cx="57.3134328" cy="50.0260266" rx="2.5696081" ry="3.56438176"></ellipse>
                        <ellipse id="Oval-14-Copy-2" fill="#4C5045" cx="30.2766867" cy="50.0260266" rx="2.5696081" ry="3.56438176"></ellipse>
                    </g>
                </g>
                <polyline id="Triangle" stroke="#ABABAB" stroke-width="2" stroke-linecap="round" stroke-linejoin="round" transform="translate(155.515501, 222.032138) rotate(-118.000000) translate(-155.515501, -222.032138) " points="149.042533 224.837091 155.515501 219.227185 161.98847 224.837091"></polyline>
                <polyline id="Triangle-Copy" stroke="#ABABAB" stroke-width="2" stroke-linecap="round" stroke-linejoin="round" transform="translate(13.956375, 67.877863) rotate(-327.000000) translate(-13.956375, -67.877863) " points="7.48340658 70.682816 13.9563752 65.0729099 20.4293438 70.682816"></polyline>
                <polyline id="Triangle-Copy-4" stroke="#ABABAB" stroke-width="2" stroke-linecap="round" stroke-linejoin="round" transform="translate(166.195246, 29.054228) rotate(-246.000000) translate(-166.195246, -29.054228) " points="159.722277 31.8591814 166.195246 26.2492752 172.668214 31.8591814"></polyline>
                <g id="Group-10" opacity="0.3" transform="translate(187.648584, 123.103092) rotate(197.000000) translate(-187.648584, -123.103092) translate(179.148584, 90.603092)" stroke="#4C5045">
                    <path d="M5.42456887,45.119225 C5.30797542,45.119225 5.21345776,45.2137426 5.21345776,45.3303361 L5.21345776,63.8765942 C5.21345776,63.9931876 5.30797542,64.0877053 5.42456887,64.0877053 L11.6785493,64.0877053 C11.7951427,64.0877053 11.8896604,63.9931876 11.8896604,63.8765942 L11.8896604,45.3303361 C11.8896604,45.2137426 11.7951427,45.119225 11.6785493,45.119225 L5.42456887,45.119225 Z" id="Rectangle-15" fill="url(#linearGradient-3)"></path>
                    <rect id="Rectangle-14" fill="#C6792D" x="0.5" y="0.5" width="15.9684479" height="45.1340752" rx="3.08148148"></rect>
                    <path d="M3.17204195,5.26071353 L3.17204195,11.9535973" id="Line-7" stroke-linecap="round"></path>
                    <path d="M5.21345776,60.9562955 L5.21345776,63.8765942 C5.21345776,63.9931876 5.30797542,64.0877053 5.42456887,64.0877053 L11.6785493,64.0877053 C11.7951427,64.0877053 11.8896604,63.9931876 11.8896604,63.8765942 L11.8896604,60.9562955 L5.21345776,60.9562955 Z" id="Rectangle-15" fill="#C6792D"></path>
                </g>
                <g id="Group-2" opacity="0.3" transform="translate(40.977241, 126.977241) rotate(-30.000000) translate(-40.977241, -126.977241) translate(31.477241, 117.477241)">
                    <ellipse id="Oval-12" stroke="#4C5045" fill="#ED2430" cx="9.36343801" cy="9.35733999" rx="9.36343801" ry="9.35733999"></ellipse>
                    <path d="M9.5,0.5 L9.5,17.5" id="Line" stroke="#FFFFFF" stroke-linecap="square" stroke-dasharray="2"></path>
                    <ellipse id="Oval-12" stroke="#4C5045" cx="9.36343801" cy="9.35733999" rx="9.36343801" ry="9.35733999"></ellipse>
                </g>
                <ellipse id="Oval" stroke="#FA7171" stroke-width="0.96" opacity="0.646484375" cx="41.7972973" cy="11.8008815" rx="4.7972973" ry="4.80088149"></ellipse>
                <polygon id="Star-Copy" stroke="#4A90E2" stroke-width="0.96" opacity="0.763671875" stroke-linecap="round" stroke-linejoin="round" transform="translate(181.512007, 6.116507) rotate(-369.000000) translate(-181.512007, -6.116507) " points="181.512007 9.59328231 177.954136 11.3974769 178.633629 7.57613141 175.75525 4.86983948 179.733072 4.31231268 181.512007 0.835537664 183.290943 4.31231268 187.268764 4.86983948 184.390386 7.57613141 185.069879 11.3974769"></polygon>
                <ellipse id="Oval-Copy" stroke="#F5A623" stroke-width="0.96" opacity="0.772767857" cx="29.7972973" cy="224.800881" rx="4.7972973" ry="4.80088149"></ellipse>
                <path d="M206.668604,214.664661 L206.668604,224.266601 L216.262658,224.266601 L216.262658,214.664661 L206.668604,214.664661 Z" id="Rectangle" stroke="#4A90E2" stroke-width="0.96" opacity="0.73203125" transform="translate(211.465631, 219.465631) rotate(-315.000000) translate(-211.465631, -219.465631) "></path>
                <polygon id="Triangle-Copy-3" stroke="#F5A623" stroke-width="0.96" opacity="0.699999988" transform="translate(121.099376, 249.101099) scale(-1, 1) rotate(-387.000000) translate(-121.099376, -249.101099) " points="121.099376 243.820129 126.376403 254.382068 115.822349 254.382068"></polygon>
                <g id="settings" opacity="0.595647321" transform="translate(103.000000, 188.000000)" fill-rule="nonzero" stroke="#4C5045">
                    <path d="M20.8674074,8.55555556 L18.8091852,8.55555556 C18.4783704,8.55555556 18.2058148,8.37344444 18.0791111,8.06788889 C17.9524074,7.76233333 18.0167778,7.44048148 18.2502222,7.20662963 L19.7054815,5.75177778 C19.9193704,5.53788889 20.0371111,5.25311111 20.0371111,4.95081481 C20.0371111,4.64811111 19.9193704,4.36374074 19.7054815,4.14944444 L17.8505556,2.29451852 C17.4227778,1.86674074 16.6768148,1.86592593 16.2482222,2.29451852 L14.7933704,3.74937037 C14.5998519,3.94288889 14.3871852,3.98322222 14.2425556,3.98322222 C14.0388519,3.98322222 13.8363704,3.90337037 13.6868519,3.76362963 C13.5764444,3.66014815 13.4444444,3.47681481 13.4444444,3.19081481 L13.4444444,1.13259259 C13.4444444,0.508037037 12.9364074,0 12.3118519,0 L9.68814815,0 C9.06359259,0 8.55555556,0.508037037 8.55555556,1.13259259 L8.55555556,3.19081481 C8.55555556,3.68703704 8.14937037,3.98322222 7.75662963,3.98322222 C7.61240741,3.98322222 7.39974074,3.94248148 7.20622222,3.74937037 L5.75137037,2.29451852 C5.32277778,1.86592593 4.57681481,1.86674074 4.14903704,2.29451852 L2.29411111,4.14944444 C2.08022222,4.36333333 1.96248148,4.64811111 1.96248148,4.95081481 C1.96248148,5.25311111 2.08022222,5.53748148 2.29411111,5.75177778 L3.74937037,7.20662963 C3.98281481,7.44048148 4.04677778,7.76233333 3.92048148,8.06788889 C3.79418519,8.37344444 3.52162963,8.55555556 3.19081481,8.55555556 L1.13259259,8.55555556 C0.508037037,8.55555556 0,9.06359259 0,9.68814815 L0,12.311037 C0,12.936 0.508037037,13.4444444 1.13259259,13.4444444 L3.19081481,13.4444444 C3.52162963,13.4444444 3.79418519,13.6265556 3.92088889,13.9321111 C4.04759259,14.2376667 3.98322222,14.5595185 3.74977778,14.7933704 L2.29451852,16.2482222 C2.08062963,16.4621111 1.96288889,16.7468889 1.96288889,17.0491852 C1.96288889,17.3518889 2.08062963,17.6362593 2.29451852,17.8505556 L4.14944444,19.7054815 C4.57762963,20.1336667 5.32318519,20.1344815 5.75177778,19.7054815 L7.20662963,18.2506296 C7.40014815,18.0571111 7.61281481,18.0167778 7.75744444,18.0167778 C8.14977778,18.0167778 8.55596296,18.3133704 8.55596296,18.8091852 L8.55596296,20.867 C8.55555556,21.4915556 9.06359259,22 9.68814815,22 L12.3114444,22 C12.936,22 13.444037,21.4915556 13.444037,20.867 L13.444037,18.8091852 C13.444037,18.312963 13.8502222,18.0167778 14.2425556,18.0167778 C14.3867778,18.0167778 14.5998519,18.0575185 14.7933704,18.2506296 L16.2482222,19.7054815 C16.6768148,20.1340741 17.4227778,20.1332593 17.8505556,19.7054815 L19.7054815,17.8505556 C19.9193704,17.6366667 20.0371111,17.3518889 20.0371111,17.0491852 C20.0371111,16.7468889 19.9193704,16.4625185 19.7054815,16.2482222 L18.2502222,14.7933704 C18.0167778,14.5595185 17.9528148,14.2376667 18.0791111,13.9321111 C18.2054074,13.6265556 18.4783704,13.4444444 18.8091852,13.4444444 L20.8674074,13.4444444 C21.491963,13.4444444 22,12.936 22,12.3114444 L22,9.68814815 C22,9.06359259 21.491963,8.55555556 20.8674074,8.55555556 Z M13.8518519,11 C13.8518519,12.5721852 12.5721852,13.8518519 11,13.8518519 C9.42781481,13.8518519 8.14814815,12.5721852 8.14814815,11 C8.14814815,9.42781481 9.42781481,8.14814815 11,8.14814815 C12.5721852,8.14814815 13.8518519,9.42781481 13.8518519,11 Z" id="Shape" fill="#B7C1CB"></path>
                    <path d="M14,11 C14,12.6538571 12.6538571,14 11,14 C9.34614286,14 8,12.6538571 8,11 C8,9.34614286 9.34614286,8 11,8 C12.6538571,8 14,9.34614286 14,11 Z" id="Shape"></path>
                </g>
            </g>
        </g>
    </g>
</svg>