<?xml version="1.0" encoding="UTF-8"?>
<svg width="360px" height="365px" viewBox="0 0 360 365" version="1.1" xmlns="http://www.w3.org/2000/svg" xmlns:xlink="http://www.w3.org/1999/xlink">
    <!-- Generator: sketchtool 52.5 (67469) - http://www.bohemiancoding.com/sketch -->
    <title>CF44F106-ACA2-4E9B-9CFF-3EC0A7A9A75Dsvg/</title>
    <desc>Created with sketchtool.</desc>
    <defs>
        <filter x="-71.3%" y="-71.2%" width="242.5%" height="242.4%" filterUnits="objectBoundingBox" id="filter-1">
            <feGaussianBlur stdDeviation="40.5642857" in="SourceGraphic"></feGaussianBlur>
        </filter>
        <linearGradient x1="92.2013898%" y1="119.816907%" x2="36.7995734%" y2="32.9867792%" id="linearGradient-2">
            <stop stop-color="#D7ABF4" offset="0%"></stop>
            <stop stop-color="#BA82EC" offset="100%"></stop>
        </linearGradient>
        <linearGradient x1="27.7766421%" y1="37.1342535%" x2="87.6151823%" y2="102.791273%" id="linearGradient-3">
            <stop stop-color="#EAA98C" offset="0%"></stop>
            <stop stop-color="#F8B79B" offset="100%"></stop>
        </linearGradient>
        <linearGradient x1="27.7766421%" y1="37.1342535%" x2="87.6151823%" y2="102.791273%" id="linearGradient-4">
            <stop stop-color="#F5C08B" offset="0%"></stop>
            <stop stop-color="#DCA064" offset="100%"></stop>
        </linearGradient>
        <linearGradient x1="27.7766421%" y1="37.1342535%" x2="87.6151823%" y2="102.791273%" id="linearGradient-5">
            <stop stop-color="#EBB79F" offset="0%"></stop>
            <stop stop-color="#FBC4AC" offset="100%"></stop>
        </linearGradient>
        <linearGradient x1="79.0970534%" y1="5.62418911%" x2="24.1737954%" y2="119.75636%" id="linearGradient-6">
            <stop stop-color="#80C3F3" offset="0%"></stop>
            <stop stop-color="#4A90E2" offset="100%"></stop>
        </linearGradient>
        <linearGradient x1="17.0954251%" y1="10.6822422%" x2="85.9525158%" y2="140.481843%" id="linearGradient-7">
            <stop stop-color="#F5F5F5" offset="0%"></stop>
            <stop stop-color="#E1E1E1" offset="100%"></stop>
        </linearGradient>
    </defs>
    <g id="UI" stroke="none" stroke-width="1" fill="none" fill-rule="evenodd">
        <g id="2.2--Onboarding-Page-3" transform="translate(0.000000, -51.000000)">
            <g id="Group-3" transform="translate(78.000000, 127.000000)">
                <ellipse id="Oval-3" fill="#F5A623" opacity="0.2" filter="url(#filter-1)" cx="101.391892" cy="106.45569" rx="85.3918919" ry="85.4556904"></ellipse>
                <polygon id="Star-2" stroke="#4A90E2" transform="translate(173.339913, 16.339913) rotate(-45.000000) translate(-173.339913, -16.339913) " points="173.339913 17.7720836 170.271131 19.4086941 171.907741 16.3399125 170.271131 13.2711309 173.339913 14.9077415 176.408694 13.2711309 174.772084 16.3399125 176.408694 19.4086941"></polygon>
                <polygon id="Star-2-Copy" stroke="#5FB100" transform="translate(35.375000, 34.375000) rotate(-45.000000) translate(-35.375000, -34.375000) " points="35.375 35.4887499 32.9885146 36.7614854 34.2612501 34.375 32.9885146 31.9885146 35.375 33.2612501 37.7614854 31.9885146 36.4887499 34.375 37.7614854 36.7614854"></polygon>
                <circle id="Oval" stroke="#FA7171" cx="87" cy="4" r="4"></circle>
                <circle id="Oval-Copy" stroke="#F5A623" cx="197" cy="172" r="3"></circle>
                <path d="M29.0842623,181.084262 L29.0842623,187.733757 L35.7337572,187.733757 L35.7337572,181.084262 L29.0842623,181.084262 Z" id="Rectangle-Copy" stroke="#4A90E2" transform="translate(32.409010, 184.409010) rotate(-315.000000) translate(-32.409010, -184.409010) "></path>
                <rect id="Rectangle-Copy-2" stroke="#FA7171" transform="translate(112.864365, 189.864365) rotate(-352.000000) translate(-112.864365, -189.864365) " x="109.942881" y="186.942881" width="5.84296843" height="5.84296843"></rect>
                <g id="Group-2" transform="translate(0.000000, 24.000000)">
                    <g id="Group-27" transform="translate(0.000000, 37.000000)">
                        <path d="M9.86842105,34.6197495 C9.86842105,58.0545484 30.2235684,65.3333333 30.2235684,65.3333333 L41.02053,65.3333333 L41.02053,49.9769404 L20.6449071,33.3333333 L9.86842105,34.6197495 Z" id="Shape" fill="#465059" fill-rule="nonzero"></path>
                        <path d="M34.8684211,34.6197495 C34.8684211,58.0545484 55.2235684,65.3333333 55.2235684,65.3333333 L66.02053,65.3333333 L66.02053,49.9769404 L45.6449071,33.3333333 L34.8684211,34.6197495 Z" id="Shape" fill="#465059" fill-rule="nonzero" transform="translate(50.444476, 49.333333) scale(-1, 1) translate(-50.444476, -49.333333) "></path>
                        <g id="Group-26-Copy" transform="translate(0.000000, 49.333333)" fill-rule="nonzero" stroke="#4C5045" stroke-width="1.2">
                            <path d="M69.0789474,23.7524722 C64.0451855,10.6919054 52.3708347,6.66666667 52.3708347,6.66666667 L22.6309726,6.66666667 C22.6309726,6.66666667 12.2109955,10.255499 6.81303143,21.666215 C6.49672694,22.3357328 6.19849678,23.0305495 5.92105263,23.7533757 L18.9970847,36.6666667 L56.0056263,36.6666667 L69.0789474,23.7524722 Z" id="Shape" fill="url(#linearGradient-2)"></path>
                            <path d="M48.0263158,10 C48.0263158,15.5227353 43.4606843,20 37.8289476,20 C32.1972107,20 27.6315789,15.5227353 27.6315789,10 C27.6315789,4.47726448 32.1972107,0 37.8289476,0 C43.4606843,0 48.0263158,4.47726448 48.0263158,10 Z" id="Shape" fill="#E59E7F"></path>
                            <path d="M6.90789474,31.3333333 C4.90973147,31.3333333 3.28947368,29.771288 3.28947368,27.8449145 L3.28947368,21.4884191 C3.28947368,19.5611503 4.90973147,18 6.90789474,18 C8.906058,18 10.5263158,19.5611503 10.5263158,21.4884191 L10.5263158,27.8449145 C10.5263158,29.771288 8.906058,31.3333333 6.90789474,31.3333333 Z" id="Shape" fill="#E59E7F"></path>
                            <path d="M9.85797627,23.3333333 C8.5736439,23.3333333 7.3462344,23.5775433 6.21844119,24.0208374 C1.27055869,25.9674386 -1.26608714,31.7302629 0.629281642,36.6666667 L19.0875605,36.6666667 C19.5055911,35.57657 19.7368421,34.3953369 19.7368421,33.161015 C19.7368421,27.7335368 15.3137217,23.3333333 9.85797627,23.3333333 Z" id="Shape" fill="#EAA98C"></path>
                            <path d="M69.4078946,31.3333333 C71.4069865,31.3333333 73.0263158,29.771288 73.0263158,27.8449145 L73.0263158,21.4884191 C73.0263158,19.5611503 71.4069865,18 69.4078946,18 C67.4097314,18 65.7894737,19.5611503 65.7894737,21.4884191 L65.7894737,27.8449145 C65.7894737,29.771288 67.4097314,31.3333333 69.4078946,31.3333333 Z" id="Shape" fill="#E59E7F"></path>
                            <path d="M65.1418166,23.3333333 C66.4270119,23.3333333 67.6535059,23.5775433 68.7812759,24.0208374 C73.7290545,25.9674386 76.2656472,31.7293782 74.3712075,36.6666667 L55.9124259,36.6666667 C55.4944041,35.57657 55.2631579,34.3953369 55.2631579,33.161015 C55.2631579,27.7335368 59.6861857,23.3333333 65.1418166,23.3333333 Z" id="Shape" fill="#EAA98C"></path>
                        </g>
                        <path d="M9.86842105,30 C9.86842105,21.9408584 12.838648,14.3776895 18.2318765,8.70296817 C23.5659588,3.09058804 30.642117,0 38.1581433,0 C45.6696962,0 52.7433693,3.08782961 58.0764576,8.69469273 C63.468692,14.3633455 66.4414041,21.9209976 66.4473684,29.9746222 L9.86842105,30 Z" id="Shape" fill="#465059" fill-rule="nonzero"></path>
                        <ellipse id="Oval-13" stroke="#4C5045" stroke-width="1.2" fill="#FBC4AC" cx="61.7888479" cy="32.3623397" rx="4.83310477" ry="4.91059723"></ellipse>
                        <ellipse id="Oval-13-Copy" stroke="#4C5045" stroke-width="1.2" fill="#FBC4AC" cx="14.0436311" cy="32.3623397" rx="4.83310477" ry="4.91059723"></ellipse>
                        <path d="M63.3638405,31.9162453 C63.3638405,47.7770457 51.995632,60.6354753 37.9717332,60.6354753 C23.9478344,60.6354753 12.5790539,47.7770457 12.5790539,31.9162453 C12.5790539,28.0673241 12.7171009,25.3061733 13.1265797,23.3315161 C17.7631579,22.6666667 19.7368421,23.3333333 29.6052632,14 C41.1739858,22.525798 53.2894737,24 61.2280949,25.5185332 C62.5869857,26.9929603 63.3638405,29.019156 63.3638405,31.9162453 Z" id="Shape" stroke="#4C5045" stroke-width="1.2" fill="url(#linearGradient-3)" fill-rule="nonzero"></path>
                        <path d="M27.6641991,39.8026386 C28.3964877,40.1305756 30.0075226,40.1305756 30.5933535,39.8026386" id="Line-9" stroke="#D65555" stroke-width="1.07100007" opacity="0.597209821" stroke-linecap="round"></path>
                        <path d="M45.532041,39.8026386 C46.2643296,40.1305756 47.8753645,40.1305756 48.4611954,39.8026386" id="Line-9-Copy" stroke="#D65555" stroke-width="1.07100007" opacity="0.597209821" stroke-linecap="round"></path>
                        <path d="M18.5838204,29.5350262 C18.5838204,45.3958266 23.8562983,52.5999526 36.1587469,60.0402514 C22.1348481,60.0402514 12.2861384,43.522788 12.5790539,31.9162453 C13.1578947,22.6666667 13.1578947,22.6666667 16.4473684,22.6666667 C18.670536,22.6666667 18.4210526,22 18.5838204,29.5350262 Z" id="Shape" fill-opacity="0.0399999991" fill="#000000" fill-rule="nonzero"></path>
                        <path d="M37.9162395,51.2058112 C40.5046032,51.2058112 42.6028865,49.180481 42.6028865,46.6821095 C42.6028865,45.0108477 40.5046032,48.5099148 37.9162395,48.5099148 C35.3278758,48.5099148 33.2295924,44.8620418 33.2295924,46.6821095 C33.2295924,49.180481 35.3278758,51.2058112 37.9162395,51.2058112 Z" id="Oval" fill="#5E4328"></path>
                        <ellipse id="Oval-14-Copy" fill="#4C5045" cx="46.7769316" cy="36.0824891" rx="1.68426378" ry="2.38089563"></ellipse>
                        <ellipse id="Oval-14-Copy-2" fill="#4C5045" cx="29.0555474" cy="36.0824891" rx="1.68426378" ry="2.38089563"></ellipse>
                    </g>
                    <g id="Group-28" transform="translate(140.000000, 34.000000)">
                        <g id="Group-26" transform="translate(0.000000, 49.854154)" fill-rule="nonzero" stroke="#4C5045" stroke-width="1.2">
                            <path d="M69.0789474,23.8501731 C64.0451855,10.7358843 52.3708347,6.69408861 52.3708347,6.69408861 L22.6309726,6.69408861 C22.6309726,6.69408861 12.2109955,10.2976829 6.81303143,21.7553345 C6.49672694,22.4276062 6.19849678,23.1252808 5.92105263,23.8510803 L18.9970847,36.8174874 L56.0056263,36.8174874 L69.0789474,23.8501731 Z" id="Shape" fill="#F5A623"></path>
                            <path d="M48.0263158,10.0411329 C48.0263158,15.5865848 43.4606843,20.0822658 37.8289476,20.0822658 C32.1972107,20.0822658 27.6315789,15.5865848 27.6315789,10.0411329 C27.6315789,4.49568077 32.1972107,0 37.8289476,0 C43.4606843,0 48.0263158,4.49568077 48.0263158,10.0411329 Z" id="Shape" fill="#E5B17C"></path>
                            <path d="M6.90789474,31.4622165 C4.90973147,31.4622165 3.28947368,29.893746 3.28947368,27.9594487 L3.28947368,21.5768072 C3.28947368,19.641611 4.90973147,18.0740393 6.90789474,18.0740393 C8.906058,18.0740393 10.5263158,19.641611 10.5263158,21.5768072 L10.5263158,27.9594487 C10.5263158,29.893746 8.906058,31.4622165 6.90789474,31.4622165 Z" id="Shape" fill="#DFB297"></path>
                            <path d="M9.85797627,23.4293101 C8.5736439,23.4293101 7.3462344,23.6745246 6.21844119,24.1196421 C1.27055869,26.0742503 -1.26608714,31.8607788 0.629281642,36.8174874 L19.0875605,36.8174874 C19.5055911,35.7229068 19.7368421,34.536815 19.7368421,33.2974159 C19.7368421,27.8476129 15.3137217,23.4293101 9.85797627,23.4293101 Z" id="Shape" fill="url(#linearGradient-4)"></path>
                            <path d="M69.4078946,31.4622165 C71.4069865,31.4622165 73.0263158,29.893746 73.0263158,27.9594487 L73.0263158,21.5768072 C73.0263158,19.641611 71.4069865,18.0740393 69.4078946,18.0740393 C67.4097314,18.0740393 65.7894737,19.641611 65.7894737,21.5768072 L65.7894737,27.9594487 C65.7894737,29.893746 67.4097314,31.4622165 69.4078946,31.4622165 Z" id="Shape" fill="#E5B17C"></path>
                            <path d="M65.1418166,23.4293101 C66.4270119,23.4293101 67.6535059,23.6745246 68.7812759,24.1196421 C73.7290545,26.0742503 76.2656472,31.8598904 74.3712075,36.8174874 L55.9124259,36.8174874 C55.4944041,35.7229068 55.2631579,34.536815 55.2631579,33.2974159 C55.2631579,27.8476129 59.6861857,23.4293101 65.1418166,23.4293101 Z" id="Shape" fill="url(#linearGradient-4)"></path>
                        </g>
                        <g id="Group-23" transform="translate(7.894737, 0.000000)">
                            <path d="M57.8947368,32.8530337 C57.8947368,25.3543318 54.8554431,15.6598254 49.3374306,10.3792287 C43.6770416,4.96232099 32.8947368,0.138923366 28.9471058,0.138923366 C24.9994748,0.138923366 14.2171699,4.96232099 8.55678089,10.3792287 C3.03876837,15.6598254 0,25.3543318 0,32.8530337 L57.8947368,32.8530337 Z" id="Shape" fill="#465059" fill-rule="nonzero"></path>
                            <ellipse id="Oval-13" stroke="#4C5045" stroke-width="1.2" fill="#FBC4AC" cx="52.5783216" cy="33.482763" rx="4.83310477" ry="4.93079595"></ellipse>
                            <ellipse id="Oval-13-Copy" stroke="#4C5045" stroke-width="1.2" fill="#FBC4AC" cx="4.83310477" cy="33.482763" rx="4.83310477" ry="4.93079595"></ellipse>
                            <path d="M54.1533142,33.0348337 C54.1533142,48.9608742 42.7851057,61.8721943 28.7612069,61.8721943 C14.7373081,61.8721943 3.36852757,48.9608742 3.36852757,33.0348337 C3.36852757,12.0951705 27.7246779,25.5671642 28.7609209,25.5671642 C29.7971638,25.5671642 54.1533142,11.562423 54.1533142,33.0348337 Z" id="Shape" stroke="#4C5045" stroke-width="1.2" fill="url(#linearGradient-4)" fill-rule="nonzero"></path>
                            <path d="M18.4536728,40.953666 C19.1859614,41.2829519 20.7969963,41.2829519 21.3828272,40.953666" id="Line-9" stroke="#D65555" stroke-width="1.07100007" opacity="0.597209821" stroke-linecap="round"></path>
                            <path d="M36.3215146,40.953666 C37.0538032,41.2829519 38.6648382,41.2829519 39.250669,40.953666" id="Line-9-Copy" stroke="#D65555" stroke-width="1.07100007" opacity="0.597209821" stroke-linecap="round"></path>
                            <path d="M9.3732941,30.6438199 C9.3732941,42.227621 14.645772,53.8036191 26.9482205,61.274522 C12.9243218,61.274522 3.07561213,44.6891175 3.36852757,33.0348337 C3.36852757,27.2023778 4.97239797,24.238806 6.57894737,24.238806 C8.18549676,24.238806 9.3732941,19.0600188 9.3732941,30.6438199 Z" id="Shape" fill-opacity="0.0399999991" fill="#000000" fill-rule="nonzero"></path>
                            <path d="M28.7057132,52.4037432 C31.2940769,52.4037432 33.3923602,50.3700822 33.3923602,47.8614342 C33.3923602,46.1832981 31.2940769,49.6967578 28.7057132,49.6967578 C26.1173495,49.6967578 24.0190661,46.03388 24.0190661,47.8614342 C24.0190661,50.3700822 26.1173495,52.4037432 28.7057132,52.4037432 Z" id="Oval" fill="#5E4328"></path>
                            <ellipse id="Oval-14-Copy" fill="#4C5045" cx="37.5664053" cy="37.2182145" rx="1.68426378" ry="2.39068895"></ellipse>
                            <ellipse id="Oval-14-Copy-2" fill="#4C5045" cx="19.8450211" cy="37.2182145" rx="1.68426378" ry="2.39068895"></ellipse>
                        </g>
                    </g>
                    <g id="Group-28" transform="translate(45.000000, 0.000000)">
                        <g id="Group-26" transform="translate(6.736842, 80.442410)" fill-rule="nonzero" stroke="#4C5045" stroke-width="2">
                            <path d="M109.315789,39.8063772 C100.85907,17.9183882 81.2461602,11.1725569 81.2461602,11.1725569 L31.2831919,11.1725569 C31.2831919,11.1725569 13.7776304,17.1870219 4.70905069,36.3100531 C4.17765916,37.4320869 3.67663248,38.5965187 3.21052632,39.8078913 L25.1782602,61.4490631 L87.3526101,61.4490631 L109.315789,39.8063772 Z" id="Shape" fill="#DA5B65"></path>
                            <path d="M73.9473684,16.7588354 C73.9473684,26.0142965 66.2771074,33.5176708 56.8157899,33.5176708 C47.3544719,33.5176708 39.6842105,26.0142965 39.6842105,16.7588354 C39.6842105,7.50337383 47.3544719,0 56.8157899,0 C66.2771074,0 73.9473684,7.50337383 73.9473684,16.7588354 Z" id="Shape" fill="#DFB297"></path>
                            <path d="M7.84120277,53.3668531 C4.48428849,53.3668531 1.7622554,50.7490469 1.7622554,47.5206693 L1.7622554,36.8679233 C1.7622554,33.6380453 4.48428849,31.0217392 7.84120277,31.0217392 C11.1981171,31.0217392 13.9201501,33.6380453 13.9201501,36.8679233 L13.9201501,47.5206693 C13.9201501,50.7490469 11.1981171,53.3668531 7.84120277,53.3668531 Z" id="Shape" fill="#DFB297" transform="translate(7.841203, 42.194296) rotate(4.000000) translate(-7.841203, -42.194296) "></path>
                            <path d="M104.103231,52.9453955 C107.461706,52.9453955 110.182179,50.3275894 110.182179,47.0992118 L110.182179,36.4464658 C110.182179,33.2165877 107.461706,30.6002817 104.103231,30.6002817 C100.746317,30.6002817 98.0242843,33.2165877 98.0242843,36.4464658 L98.0242843,47.0992118 C98.0242843,50.3275894 100.746317,52.9453955 104.103231,52.9453955 Z" id="Shape" fill="#DFB297" transform="translate(104.103232, 41.772839) rotate(-13.000000) translate(-104.103232, -41.772839) "></path>
                        </g>
                        <g id="Group-23" transform="translate(13.263158, 0.000000)">
                            <ellipse id="Oval-13" stroke="#4C5045" stroke-width="2" fill="#FBC4AC" cx="88.3315803" cy="53.1182567" rx="8.11961601" ry="8.22958907"></ellipse>
                            <ellipse id="Oval-13-Copy" stroke="#4C5045" stroke-width="2" fill="#FBC4AC" cx="8.11961601" cy="53.1182567" rx="8.11961601" ry="8.22958907"></ellipse>
                            <path d="M90.8447573,52.5652777 C90.8447573,79.146132 71.746167,100.695362 48.1860171,100.695362 C24.6258671,100.695362 5.52631579,79.146132 5.52631579,52.5652777 C5.52631579,25.983339 24.6258671,4.43410853 48.1860171,4.43410853 C71.746167,4.43410853 90.8447573,25.983339 90.8447573,52.5652777 Z" id="Shape" stroke="#4C5045" stroke-width="2" fill="url(#linearGradient-5)" fill-rule="nonzero"></path>
                            <path d="M31.0021702,65.587331 C32.2324151,66.1369153 34.9389538,66.1369153 35.9231496,65.587331" id="Line-9" stroke="#D65555" stroke-width="1.78500012" opacity="0.597209821" stroke-linecap="round"></path>
                            <path d="M61.0201446,65.587331 C62.2503894,66.1369153 64.9569281,66.1369153 65.941124,65.587331" id="Line-9-Copy" stroke="#D65555" stroke-width="1.78500012" opacity="0.597209821" stroke-linecap="round"></path>
                            <path d="M15.7471341,48.3800084 C15.7471341,74.9608628 24.604897,87.0341389 45.2730105,99.5032132 C21.7128605,99.5032132 5.16702837,71.8218682 5.65912631,52.3706544 C5.65912631,25.7887157 24.7586776,4.23948528 48.3188276,4.23948528 C71.8789775,4.23948528 15.7471341,21.7980698 15.7471341,48.3800084 Z" id="Shape" fill-opacity="0.0399999991" fill="#000000" fill-rule="nonzero"></path>
                            <path d="M48.1967642,0 C38.270029,0 29.0614861,3.17557379 21.5080314,8.57706908 C10.624343,16.3600231 3.17688336,33.0038329 1.96839176,47.1886273 C3.07561213,46.201817 4.43945369,45.50238 5.94554257,45.2081877 C5.94554257,45.2081877 8.61299538,43.2758058 13.947901,39.4110422 L82.4456276,39.4110422 L90.4470247,45.2062395 C91.9540746,45.50238 93.3179164,46.201817 94.4251368,47.1886273 C93.2085025,32.9082593 85.6682044,16.1929495 74.664622,8.42038052 C67.1527116,3.11421393 58.0267372,0 48.1967642,0 Z" id="Shape" stroke="#4C5045" stroke-width="2" fill="url(#linearGradient-6)" fill-rule="nonzero"></path>
                            <path d="M82.6539314,39.7773212 C82.5837691,39.5133275 82.419416,39.2882998 82.1906672,39.1431518 C79.6042698,37.4958704 63.1881901,27.4319636 48.1965031,27.4319636 C33.2048164,27.4319636 16.7877753,37.4958704 14.2013779,39.1431518 C13.9735902,39.2882998 13.8092374,39.5133275 13.7381137,39.7773212 C13.0412954,42.3753698 9.51875849,56.4946481 15.3989443,56.1566192 C21.8740691,55.7835213 34.4023827,41.7947786 48.1965031,41.7947786 C61.9906235,41.7947786 74.5189373,55.7835213 80.9940619,56.1566192 C86.8732867,56.4946481 83.3517108,42.3753698 82.6539314,39.7773212 Z" id="Shape" stroke="#4C5045" stroke-width="2" fill="url(#linearGradient-6)" fill-rule="nonzero"></path>
                            <path d="M47.6630407,84.9222849 C52.0114917,84.9222849 55.5366078,81.5280673 55.5366078,77.3410877 C55.5366078,74.5402476 52.0114917,80.4042765 47.6630407,80.4042765 C43.3145897,80.4042765 39.7894737,74.2908661 39.7894737,77.3410877 C39.7894737,81.5280673 43.3145897,84.9222849 47.6630407,84.9222849 Z" id="Oval" fill="#5E4328"></path>
                            <ellipse id="Oval-14-Copy" fill="#4C5045" cx="63.1115608" cy="59.3527939" rx="2.82956316" ry="3.99010379"></ellipse>
                            <ellipse id="Oval-14-Copy-2" fill="#4C5045" cx="33.3396355" cy="59.3527939" rx="2.82956316" ry="3.99010379"></ellipse>
                        </g>
                        <path d="M13,93 L13,136.449612 L110.473684,136.449612 L110.473684,93 L13,93 Z" id="Rectangle-17" stroke="#4C5045" stroke-width="2" fill="url(#linearGradient-7)"></path>
                        <text id="Go-Team!" font-family="Boogaloo-Regular, Boogaloo" font-size="16" font-weight="normal" fill="#4A4A4A">
                            <tspan x="37.084" y="120">Go Team!</tspan>
                        </text>
                        <path d="M16.5614001,119.546359 C14.4037218,119.546359 12.3416738,119.955626 10.4469812,120.698536 C2.13453859,123.960813 -2.1270264,133.618635 1.05719316,141.891473 L32.0671016,141.891473 C32.769393,140.064598 33.1578947,138.084989 33.1578947,136.016409 C33.1578947,126.920588 25.7270524,119.546359 16.5614001,119.546359 Z" id="Shape" stroke="#4C5045" stroke-width="2" fill="#FBC4AC" fill-rule="nonzero"></path>
                        <path d="M109.438252,119.546359 C111.59738,119.546359 113.65789,119.955626 115.552544,120.698536 C123.864812,123.960813 128.126287,133.617152 124.943629,141.891473 L93.9328755,141.891473 C93.2305988,140.064598 92.8421053,138.084989 92.8421053,136.016409 C92.8421053,126.920588 100.272792,119.546359 109.438252,119.546359 Z" id="Shape" stroke="#4C5045" stroke-width="2" fill="#FBC4AC" fill-rule="nonzero"></path>
                    </g>
                </g>
                <g id="Group-29-Copy" opacity="0.601953125" transform="translate(81.359687, 98.669052) rotate(-26.000000) translate(-81.359687, -98.669052) translate(76.859687, 95.669052)">
                    <polygon id="Rectangle-18" fill="#F17A11" points="0 0 9 0 9 2.0625 0 2.0625"></polygon>
                    <polygon id="Rectangle-18-Copy" fill="#FFFFFF" points="0 2.0625 9 2.0625 9 4.125 0 4.125"></polygon>
                    <polygon id="Rectangle-18-Copy-2" fill="#417505" points="0 3.9375 9 3.9375 9 6 0 6"></polygon>
                </g>
                <g id="Group-29-Copy-2" opacity="0.601953125" transform="translate(131.359687, 98.669052) scale(-1, 1) rotate(-26.000000) translate(-131.359687, -98.669052) translate(126.859687, 95.669052)">
                    <polygon id="Rectangle-18" fill="#F17A11" points="0 0 9 0 9 2.0625 0 2.0625"></polygon>
                    <polygon id="Rectangle-18-Copy" fill="#FFFFFF" points="0 2.0625 9 2.0625 9 4.125 0 4.125"></polygon>
                    <polygon id="Rectangle-18-Copy-2" fill="#417505" points="0 3.9375 9 3.9375 9 6 0 6"></polygon>
                </g>
            </g>
        </g>
    </g>
</svg>